<svg width="128" height="24" viewBox="0 0 128 24" fill="none" xmlns="http://www.w3.org/2000/svg">
<path d="M12 0L15.5267 7.1459L23.4127 8.2918L17.7063 13.8541L19.0534 21.7082L12 18L4.94658 21.7082L6.29366 13.8541L0.587322 8.2918L8.47329 7.1459L12 0Z" fill="#FFD957"/>
<path d="M38 0L41.5267 7.1459L49.4127 8.2918L43.7063 13.8541L45.0534 21.7082L38 18L30.9466 21.7082L32.2937 13.8541L26.5873 8.2918L34.4733 7.1459L38 0Z" fill="#FFD957"/>
<path d="M64 0L67.5267 7.1459L75.4127 8.2918L69.7063 13.8541L71.0534 21.7082L64 18L56.9466 21.7082L58.2937 13.8541L52.5873 8.2918L60.4733 7.1459L64 0Z" fill="#FFD957"/>
<path d="M90 0L93.5267 7.1459L101.413 8.2918L95.7063 13.8541L97.0534 21.7082L90 18L82.9466 21.7082L84.2937 13.8541L78.5873 8.2918L86.4733 7.1459L90 0Z" fill="#FFD957"/>
<path d="M116 0L119.527 7.1459L127.413 8.2918L121.706 13.8541L123.053 21.7082L116 18L108.947 21.7082L110.294 13.8541L104.587 8.2918L112.473 7.1459L116 0Z" fill="#FFD957"/>
</svg>
