<svg width="36" height="35" viewBox="0 0 36 35" fill="none" xmlns="http://www.w3.org/2000/svg">
<path d="M16.8108 0.879387C17.5175 0.356812 18.4825 0.356812 19.1892 0.879387L21.3643 2.4879C21.7766 2.7928 22.2903 2.92768 22.7992 2.86467L25.5115 2.52885C26.3936 2.41964 27.2419 2.90566 27.5938 3.72185L28.622 6.10661C28.8297 6.58819 29.2181 6.96895 29.7038 7.16687L32.1598 8.16778C33.0016 8.51083 33.5061 9.37837 33.3881 10.2796L33.0615 12.7732C32.9918 13.3051 33.1387 13.8428 33.4693 14.2653L35.0358 16.2676C35.6022 16.9916 35.6022 18.0084 35.0358 18.7324L33.4693 20.7347C33.1387 21.1572 32.9918 21.6949 33.0615 22.2268L33.3881 24.7204C33.5061 25.6216 33.0016 26.4892 32.1598 26.8322L29.7038 27.8331C29.2181 28.0311 28.8297 28.4118 28.622 28.8934L27.5938 31.2781C27.2419 32.0943 26.3936 32.5804 25.5115 32.4711L22.7992 32.1353C22.2903 32.0723 21.7766 32.2072 21.3643 32.5121L19.1892 34.1206C18.4825 34.6432 17.5175 34.6432 16.8108 34.1206L14.6357 32.5121C14.2234 32.2072 13.7097 32.0723 13.2008 32.1353L10.4885 32.4711C9.60641 32.5804 8.75808 32.0943 8.40617 31.2782L7.37797 28.8934C7.17034 28.4118 6.78185 28.0311 6.2962 27.8331L3.84017 26.8322C2.99841 26.4892 2.49385 25.6216 2.61191 24.7204L2.93854 22.2268C3.00822 21.6949 2.86126 21.1572 2.53068 20.7347L0.96416 18.7324C0.39776 18.0084 0.39776 16.9916 0.96416 16.2676L2.53068 14.2653C2.86126 13.8428 3.00822 13.3051 2.93854 12.7732L2.61191 10.2796C2.49385 9.37837 2.99842 8.51083 3.84017 8.16778L6.2962 7.16687C6.78185 6.96895 7.17034 6.58819 7.37797 6.10661L8.40617 3.72185C8.75808 2.90566 9.60641 2.41964 10.4885 2.52885L13.2008 2.86467C13.7097 2.92768 14.2234 2.7928 14.6357 2.4879L16.8108 0.879387Z" fill="#E70017"/>
</svg>
